<?xml version="1.0" standalone="no"?>
<!DOCTYPE svg PUBLIC "-//W3C//DTD SVG 20010904//EN"
 "http://www.w3.org/TR/2001/REC-SVG-20010904/DTD/svg10.dtd">
<svg version="1.0" xmlns="http://www.w3.org/2000/svg"
 width="1083.000000pt" height="1083.000000pt" viewBox="0 0 1083.000000 1083.000000"
 preserveAspectRatio="xMidYMid meet">
<metadata>
Created by potrace 1.11, written by Peter Selinger 2001-2013
</metadata>
<g transform="translate(0.000000,1083.000000) scale(0.100000,-0.100000)"
fill="#000000" stroke="none">
<path d="M4437 9284 c-1 -1 -60 -5 -132 -8 -71 -4 -155 -9 -185 -12 -124 -11
-157 -14 -200 -19 -25 -2 -70 -7 -100 -10 -86 -9 -114 -13 -288 -36 l-164 -22
29 -26 c15 -15 69 -60 118 -101 114 -94 168 -150 216 -223 42 -64 42 -93 0
-109 -14 -5 -134 -32 -266 -59 -132 -27 -248 -52 -257 -55 -9 -2 -25 -6 -35
-8 -10 -2 -38 -9 -63 -16 -25 -7 -53 -14 -63 -15 -102 -20 -465 -134 -676
-212 -292 -108 -675 -283 -859 -392 -29 -17 -55 -31 -57 -31 -14 0 -471 -292
-485 -310 -3 -3 -27 -22 -55 -40 -170 -115 -298 -339 -340 -595 -2 -16 -7 -41
-9 -55 -6 -29 -13 -90 -22 -192 -3 -40 -8 -89 -10 -108 -6 -52 -5 -403 1 -490
3 -41 7 -106 11 -145 3 -38 7 -92 9 -120 4 -49 12 -122 19 -180 2 -16 7 -61
11 -100 4 -38 9 -78 11 -88 2 -10 6 -45 9 -78 4 -33 8 -68 10 -77 1 -9 6 -46
9 -82 4 -36 9 -76 11 -90 2 -14 7 -43 9 -65 11 -92 19 -151 21 -167 2 -9 6
-43 10 -75 3 -32 8 -69 10 -83 2 -14 9 -65 15 -115 6 -49 13 -108 16 -130 3
-22 7 -51 9 -65 4 -29 25 -208 30 -259 4 -39 18 -51 62 -51 23 0 50 15 110 64
292 237 500 547 643 961 31 89 94 323 105 387 3 18 10 56 15 83 39 207 56 590
38 848 -5 63 -4 67 17 67 11 0 25 -4 31 -9 15 -16 350 -184 474 -238 63 -28
178 -74 255 -103 77 -29 149 -56 160 -61 11 -5 67 -24 125 -42 95 -31 140 -45
295 -91 99 -29 413 -104 530 -126 248 -46 305 -57 375 -66 25 -3 54 -8 65 -10
11 -2 40 -6 65 -9 25 -3 56 -8 70 -10 14 -3 48 -7 75 -10 64 -8 123 -15 155
-20 14 -2 59 -6 100 -9 41 -4 84 -8 95 -10 17 -3 111 -11 255 -21 85 -6 269
-17 363 -20 115 -5 690 -5 782 -1 291 16 441 26 583 41 197 22 236 26 262 30
14 2 61 9 105 15 44 6 91 13 105 15 14 2 48 7 75 10 28 4 79 13 115 20 36 7
85 16 110 20 25 3 61 10 80 15 19 5 53 11 75 15 22 3 56 10 75 15 19 5 49 11
65 14 17 3 100 24 185 46 85 22 164 42 175 45 105 24 404 145 558 224 78 40
102 49 117 41 27 -15 28 -17 34 -116 7 -101 15 -203 21 -254 14 -108 24 -180
30 -210 2 -14 7 -41 10 -60 42 -256 179 -655 301 -875 12 -22 30 -56 41 -75
42 -78 136 -222 207 -315 143 -189 328 -365 382 -365 44 0 88 75 195 333 96
235 201 590 264 902 15 71 28 141 30 155 3 22 11 69 21 125 64 333 86 754 49
944 -2 11 -7 41 -11 68 -10 73 -61 236 -96 311 -86 183 -212 320 -378 410 -49
27 -210 88 -235 90 -5 1 -30 6 -55 11 -25 5 -106 21 -180 36 -74 14 -143 29
-153 33 -14 6 -5 17 50 61 92 73 189 114 323 136 19 3 49 8 65 12 17 4 32 7
35 8 3 1 31 4 63 9 31 4 57 11 57 14 0 23 -61 89 -113 124 -155 100 -350 173
-542 202 -112 17 -316 22 -520 12 -74 -4 -127 10 -152 42 -22 27 -51 90 -59
125 -12 58 -121 275 -185 368 -117 171 -308 345 -494 449 -123 70 -379 179
-408 174 -48 -7 -61 -56 -29 -109 26 -44 86 -188 115 -280 46 -141 81 -295 67
-295 -4 0 -47 26 -96 58 -350 230 -825 447 -1199 548 -188 50 -374 93 -475
108 -19 3 -44 7 -55 10 -11 2 -45 7 -75 12 -30 4 -57 8 -60 9 -3 1 -36 5 -75
9 -38 4 -81 9 -95 11 -25 3 -77 8 -235 21 -71 6 -643 13 -648 8z"/>
<path d="M2757 4093 c-1 -1 -62 -4 -134 -8 -73 -3 -147 -8 -164 -10 -18 -3
-64 -7 -103 -10 -39 -4 -87 -8 -106 -11 -19 -2 -60 -6 -90 -9 -82 -8 -152 -15
-180 -20 -14 -2 -50 -6 -80 -10 -52 -6 -86 -10 -175 -21 -22 -2 -56 -7 -75 -9
-31 -3 -78 -9 -165 -20 -17 -2 -64 -6 -105 -10 -41 -3 -100 -8 -130 -11 -136
-12 -209 -67 -230 -171 -6 -32 -15 -69 -20 -83 -15 -43 -28 -155 -23 -196 11
-88 57 -149 164 -219 84 -54 115 -87 146 -153 22 -47 51 -165 68 -277 11 -73
13 -87 41 -235 30 -158 135 -397 231 -525 195 -259 444 -402 838 -480 66 -13
143 -27 170 -30 28 -4 61 -9 75 -11 163 -25 632 -25 779 1 9 1 48 8 86 14 458
79 838 269 1115 557 178 185 250 302 419 672 97 214 122 260 159 297 41 41 81
58 142 60 64 2 115 -19 161 -68 30 -31 99 -165 181 -352 100 -226 183 -369
295 -507 58 -71 177 -191 228 -230 17 -12 37 -29 45 -37 35 -34 203 -137 305
-187 262 -127 504 -191 883 -231 145 -15 621 -7 692 12 8 2 35 7 60 10 24 4
47 8 50 10 3 2 26 6 50 10 136 20 386 128 548 236 212 142 350 297 435 489 51
114 106 320 131 483 3 20 9 54 12 75 32 211 88 322 207 407 113 83 127 95 147
139 24 53 22 113 -8 236 -12 47 -23 101 -25 120 -8 72 -54 121 -128 135 -11 2
-28 6 -37 9 -9 3 -37 8 -62 11 -45 5 -103 13 -150 20 -14 2 -47 6 -75 10 -27
3 -61 7 -74 10 -22 4 -61 9 -171 20 -25 2 -58 7 -75 9 -16 3 -57 8 -90 11 -33
3 -80 8 -104 11 -51 6 -133 13 -206 19 -27 2 -88 6 -135 10 -47 3 -107 8 -135
10 -244 23 -956 23 -1196 0 -24 -2 -80 -6 -124 -10 -79 -6 -142 -12 -200 -20
-16 -2 -55 -7 -85 -10 -30 -3 -80 -10 -110 -15 -30 -5 -73 -12 -95 -15 -35 -5
-70 -11 -185 -32 -14 -2 -59 -11 -100 -20 -41 -8 -84 -17 -95 -19 -20 -4 -133
-23 -170 -29 -70 -10 -200 -26 -260 -31 -38 -3 -88 -7 -110 -9 -102 -10 -481
-4 -590 10 -22 3 -62 7 -90 10 -88 9 -333 52 -405 70 -24 6 -261 53 -300 60
-19 3 -46 7 -60 10 -22 4 -63 9 -155 20 -30 4 -93 11 -170 19 -22 3 -80 8
-130 11 -49 4 -108 9 -130 11 -126 10 -840 25 -848 17z m738 -297 c17 -2 63
-7 103 -11 41 -3 81 -8 90 -10 9 -1 42 -6 72 -10 30 -4 111 -18 180 -32 152
-30 134 -26 255 -58 307 -82 417 -146 466 -273 20 -50 23 -77 23 -212 1 -170
-6 -240 -34 -345 -34 -124 -40 -141 -80 -224 -121 -247 -323 -445 -588 -576
-173 -85 -389 -150 -567 -170 -33 -4 -69 -9 -80 -11 -24 -5 -285 -18 -370 -18
-87 0 -200 12 -285 30 -41 9 -88 18 -105 21 -62 10 -272 75 -325 100 -113 53
-222 143 -282 233 -65 96 -139 344 -175 585 -9 63 -10 393 -1 460 29 218 195
378 443 430 44 9 87 18 96 20 9 2 34 6 55 9 22 3 50 8 64 11 57 11 90 15 175
25 50 6 104 13 120 15 17 3 80 8 140 11 61 4 111 8 113 9 4 4 463 -4 497 -9z
m4910 -1 c213 -35 318 -71 427 -148 103 -71 173 -184 203 -327 15 -70 22 -312
11 -395 -2 -16 -6 -55 -10 -86 -4 -31 -8 -65 -10 -75 -2 -11 -7 -39 -12 -64
-5 -25 -9 -49 -10 -55 -3 -26 -18 -98 -36 -170 -64 -258 -228 -428 -502 -520
-73 -25 -271 -71 -344 -80 -20 -3 -47 -7 -59 -9 -12 -3 -53 -8 -90 -12 -37 -3
-79 -8 -93 -10 -34 -5 -328 -4 -365 1 -16 2 -55 6 -85 9 -279 30 -587 152
-790 315 -56 45 -167 155 -200 200 -14 18 -34 45 -46 59 -93 120 -192 351
-224 527 -24 134 -34 373 -18 446 24 108 155 214 330 268 63 19 238 56 318 67
19 2 49 6 65 9 17 2 62 7 100 11 39 3 77 8 87 9 9 2 63 6 120 10 56 4 119 8
138 10 19 2 118 7 220 11 102 3 186 7 188 9 6 6 649 -4 687 -10z"/>
<path d="M3134 3314 c-21 -8 -40 -14 -41 -14 -1 0 -10 -14 -19 -31 -11 -22
-16 -64 -18 -138 -4 -140 -3 -134 -26 -159 -31 -32 -69 -13 -151 78 -39 44
-82 86 -95 95 -63 41 -127 16 -173 -70 -24 -44 -34 -68 -48 -125 -49 -197 60
-457 233 -554 171 -95 403 -80 559 38 194 145 256 364 169 595 -32 85 -87 157
-166 216 -99 75 -156 93 -224 69z"/>
<path d="M7552 3293 c-39 -19 -54 -51 -54 -108 1 -22 2 -68 2 -101 1 -47 -4
-73 -22 -107 l-23 -46 -50 42 c-27 23 -79 72 -115 108 -36 36 -76 70 -88 74
-68 21 -156 -42 -186 -131 -40 -121 -40 -273 0 -375 55 -140 167 -240 330
-295 184 -62 352 -23 489 113 169 167 210 356 125 570 -37 91 -75 148 -136
202 -75 66 -198 91 -272 54z"/>
</g>
</svg>
