<svg id="Layer_1" data-name="Layer 1" xmlns="http://www.w3.org/2000/svg" viewBox="0 0 480 198.94"><defs><style>.cls-1{fill:#c30519;}</style></defs><title>IWA_logo_b_w_-_300</title><path class="cls-1" d="M0,40.82c4.65.21,9.3.59,14,0l.7-.06c.41,0,1-.21,1.07.39a1.27,1.27,0,0,1-.66,1.43,4.26,4.26,0,0,1-1,.35c-1.68.31-2.18,1.35-2.22,3-.07,3,0,6.06,0,9.1q0,24.74,0,49.48c0,.47,0,.93,0,1.4.07,2.6,1.42,3.67,3.84,3.71a3.78,3.78,0,0,0,3.55-3.95q0-9.9,0-19.79,0-11.84,0-23.69,0-.25,0-.5c0-3.23,0-3.23-2.68-5.06a2.84,2.84,0,0,1-.69-.57.76.76,0,0,1,.59-1.29,7.86,7.86,0,0,1,1.59.13,17.34,17.34,0,0,0,6.64-.12,2.76,2.76,0,0,1,.69-.07.9.9,0,0,1,.91.65.84.84,0,0,1-.49,1c-2.17,1.31-2.28,1.4-.9,3.78,2.46,4.22,4.86,8.49,7.28,12.74,4,7,8,14,12,21.1,1.12,2,2.21,4,3.39,6,.19.31.29.88.79.73s.39-.65.38-1c-.13-2.93-.21-5.86-.21-8.79,0-10.46-.1-20.92.07-31.39a2.19,2.19,0,0,0-1.22-2.2A3,3,0,0,1,45.92,56c-.39-.73-.09-1.24.73-1.29a.7.7,0,0,1,.2,0,16.22,16.22,0,0,0,6.34,0c.9-.15,1.2.41.8,1.24A4.48,4.48,0,0,1,52.3,57.8,1.3,1.3,0,0,0,51.66,59q0,17,.08,34c0,4.3.1,8.6,0,12.89,0,2.16,1.17,3.7,2.17,5.35a12.42,12.42,0,0,0,8,5.56,2.73,2.73,0,0,0,2.6-.61,14.91,14.91,0,0,0,1.5-1.46c.88-1,.78-1.69-.3-2.49a4,4,0,0,1-1.06-.89c-.21-.31-.41-.63-.13-1a1.06,1.06,0,0,1,1-.5c1.94.19,3.55,3,2.74,4.74a6.66,6.66,0,0,1-4.42,3.84c-3.21.94-6.18.14-9-1.16-4.57-2.11-7.74-5.75-10.2-10.07-3.6-6.33-7.23-12.65-10.85-19q-3.84-6.72-7.66-13.44a30.15,30.15,0,0,0-1.77-3.46c-.26-.35-.49-.72-.78-1s-.56-.84-1-.6.16.61.09.95c-.4,2,.07,4,.07,6.07q0,14.39,0,28.79a7.28,7.28,0,0,0,.17,1.58A2.22,2.22,0,0,0,24.77,109c.46.1.91.22,1.35.35.67.19.71.73.64,1.28s-.53.7-1,.65c-7.11-.67-14.23-.11-21.34-.3-1.46,0-2.92.16-4.38.25v-1.6c3.74-.6,4.56-1.45,4.56-5.08q0-25,0-50c0-2.73-.1-5.46,0-8.19S2.56,42.48,0,42.41Z"/><path class="cls-1" d="M208.42,118.51a13.57,13.57,0,0,1-7.42-.6,21.2,21.2,0,0,1-9.62-7.64,82.34,82.34,0,0,1-4.9-8.22c-5.66-9.6-11.07-19.35-16.55-29.05-.56-1-1-2-1.55-3-.13-.24-.21-.64-.6-.56s-.43.41-.5.7a3.07,3.07,0,0,0-.09.89c.39,8.56.14,17.12.21,25.69,0,2.8,0,5.6,0,8.4a6.76,6.76,0,0,0,.16,1.69,2.66,2.66,0,0,0,2.23,2.25,4.49,4.49,0,0,1,1.33.4,1,1,0,0,1,.56,1.16.92.92,0,0,1-1,.67,3.59,3.59,0,0,1-.8-.05,22.33,22.33,0,0,0-7.06-.18,11.62,11.62,0,0,1-8.57-2.86,32.25,32.25,0,0,1-8-10q-3.4-6.11-6.77-12.22a33.47,33.47,0,0,0-3.12-5.32c-.14-.17-.17-.53-.44-.47s-.46.37-.55.65a1.72,1.72,0,0,0,0,.59c.4,6.76.15,13.52.22,20.29,0,1.47,0,2.93,0,4.4,0,1.95.5,2.51,2.35,3.08a3,3,0,0,1,.75.24,1.18,1.18,0,0,1,.58,1.28.75.75,0,0,1-1,.59c-3.94-.72-7.91-.16-11.87-.3a28.27,28.27,0,0,0-6.88.25,2.48,2.48,0,0,1-.7,0,1.21,1.21,0,0,1-1.15-.82c-.12-.44.43-.6.73-.84a3.57,3.57,0,0,1,1.55-.65,1.48,1.48,0,0,0,1.25-1.83,8.06,8.06,0,0,0-.79-2.67c-1.17-2.51-2-5.15-2.94-7.74-1.4-3.77-2.75-7.56-4.07-11.36a1.61,1.61,0,0,0-1.86-1.21,95,95,0,0,1-10.88,0A1.53,1.53,0,0,0,99,85.25c-1.48,4.16-3,8.33-4.46,12.49-.74,2-1.53,4-2.33,6.05a7.88,7.88,0,0,0-.49,2.33c-.17,2.24,1.06,3,2.84,3.17.23,0,.47,0,.7,0a1,1,0,0,1,.86,1.06c0,.58-.41.88-1,.83L93,111c-2.36-.21-4.73-.08-7.09-.15a2.66,2.66,0,0,0-1.33.38c-3.66,2-7.42,1.73-11.1.24-7.78-3.15-12.84-8.89-15.48-16.81A37.67,37.67,0,0,1,56.5,78.1a32.23,32.23,0,0,1,3.6-11.55A24.82,24.82,0,0,1,72.21,55.14c5.22-2.28,10.29-1.88,15.33.45.39.18.79.36,1.19.53a2.19,2.19,0,0,0,2.95-.6,3.54,3.54,0,0,1,.79-.59,1.09,1.09,0,0,1,1.22-.08c.4.28.31.7.28,1.1a47,47,0,0,0,0,9.58,9.18,9.18,0,0,1-.07,2.59c-.06.37-.2.75-.64.79s-.58-.28-.72-.6c-.39-.91-.79-1.83-1.16-2.75a17.09,17.09,0,0,0-5.14-7.13c-3.7-3-7.47-3.53-11.8-1.43-4.1,2-6.6,5.34-8.41,9.35a28.08,28.08,0,0,0-1.65,3.74c-1.6,5.6-2.78,11.26-2,17.12.7,5,1.74,10,4.4,14.41a18.8,18.8,0,0,0,6.28,6.85c3.39,2,6.92,2.62,10.71.71,3.33-1.68,5-4.46,6.22-7.77q2.88-8.08,5.8-16.14,4.64-12.85,9.3-25.7A48.15,48.15,0,0,0,107,53.77a2.2,2.2,0,0,1,.17-.47c.16-.33.27-.76.69-.79s.54.46.66.77c.82,2.22,1.6,4.45,2.4,6.67q2.48,6.91,5,13.82c1.58,4.42,3.12,8.85,4.86,13.21.56,1.41.94,2.91,1.46,4.35,1.15,3.22,2.29,6.45,3.52,9.65a59.18,59.18,0,0,1,1.85,6.1c.19.72.48,1.06,1.21,1s.53-.66.52-1.14c-.15-10.86-.1-21.72-.1-32.57,0-5,0-9.93,0-14.89A1.84,1.84,0,0,0,128,57.59a14.51,14.51,0,0,1-2-1.24c-.29-.2-.6-.48-.41-.92a1.08,1.08,0,0,1,.87-.74,2.27,2.27,0,0,1,.8,0c2.63.72,5.31.26,8,.39a7.83,7.83,0,0,0,2.08-.21,34,34,0,0,1,8.85-.53,14.15,14.15,0,0,1,9.25,3.47,13.48,13.48,0,0,1,4.3,9.26A15,15,0,0,1,156.71,78a12.35,12.35,0,0,1-10.54,4.69c-.58,0-1.35-.31-1.68.28s.33,1.14.65,1.66c1.66,2.65,3.06,5.45,4.64,8.15,2.6,4.45,4.9,9.07,7.85,13.32a13.45,13.45,0,0,0,2.62,2.73,1.91,1.91,0,0,0,3.3-.93,9.33,9.33,0,0,0,.41-3.25c-.05-7-.12-14-.12-21,0-7.33.07-14.66.11-22,0-.43,0-.87,0-1.3a3,3,0,0,0-2.1-3.32A2.1,2.1,0,0,1,160.58,56c-.33-.69-.08-1.2.69-1.27a4.86,4.86,0,0,1,1.29.1,17.82,17.82,0,0,0,6.65,0l.69-.1a.85.85,0,0,1,1,.54.81.81,0,0,1-.35,1c-.31.25-.65.46-1,.69A1.44,1.44,0,0,0,169,59.1c2.13,3.46,4,7,6,10.57,2.45,4.27,4.85,8.57,7.29,12.86s4.83,8.43,7.22,12.65c.73,1.3,1.19,2.74,2,4,.31.47.57,1.18,1.18,1.06s.49-.89.49-1.37c0-2-.09-3.93-.09-5.89q0-16.59,0-33.19A2.49,2.49,0,0,0,192,57.33a2.64,2.64,0,0,1-1.31-1.58c-.14-.62,0-1,.72-1a8.8,8.8,0,0,1,1.59.13,7.51,7.51,0,0,0,3.94-.06c.66-.22,1.53-.53,2,.33s-.42,1.16-.79,1.67a1.17,1.17,0,0,1-.52.45c-1.21.37-1.2,1.32-1.2,2.32q0,20.19,0,40.38a41.09,41.09,0,0,1-.2,5.79c0,.29-.08.64.28.78s.64-.11.85-.38a12.69,12.69,0,0,0,2.05-3.52c1.62-4.54,3.2-9.09,4.83-13.62,2.48-6.88,5-13.73,7.47-20.62,1.77-5,3.84-9.86,5.16-15,.12-.48.18-1.27.73-1.29s.64.76.87,1.22a28.76,28.76,0,0,1,1.26,3.78c2.07,6.15,4.39,12.22,6.58,18.33,2,5.49,4,10.94,5.92,16.44,1.49,4.34,3.28,8.58,4.58,13a6.37,6.37,0,0,0,1.09,2.33c.21.25.42.55.83.43s.44-.46.49-.79a19.94,19.94,0,0,0-.08-3.69c-.21-8.26-.12-16.53-.13-24.79q0-17.29,0-34.59c0-1.66,0-1.62-1.72-1.61q-9,0-18.09,0c-2.37,0-2.85.25-3.84,2.38-.22.49-.48,1.09-1.11.94s-.85-.84-.73-1.47c.48-2.65.12-5.32.26-8a12.88,12.88,0,0,0-.3-2.57c-.06-.41-.11-.82.28-1.09s.82-.09,1.21.12a2,2,0,0,1,1,1.34,2,2,0,0,0,2.23,1.58c1.23,0,2.47,0,3.7,0,5.43-.09,10.86-.13,16.29,0,.88,0,.88-.44.88-1,0-4.6,0-9.2,0-13.79,0-5.3,0-10.6.05-15.89a2.8,2.8,0,0,0-2.25-3.09l-.46-.18c-.48-.21-.4-.64-.38-1,0-.55.45-.39.74-.39q5.9,0,11.8,0c.28,0,.73-.21.8.32s0,.89-.42,1c-2.73.8-2.85,2.87-2.82,5.23.08,8.83,0,17.66.05,26.49,0,.4,0,.8,0,1.2-.08.89.3,1.13,1.16,1.12,6.26-.08,12.53-.11,18.79,0,.4,0,.8-.08,1.19-.09a1.89,1.89,0,0,0,2-1.55,3.24,3.24,0,0,1,.57-1c.26-.36.49-.85,1.1-.59a1.09,1.09,0,0,1,.7,1.2,38,38,0,0,0-.31,4.18,38.47,38.47,0,0,0,.31,6.48,1.11,1.11,0,0,1-.53,1.29c-.52.29-1,.39-1.23-.39a3.8,3.8,0,0,0-.48-1.09,3.39,3.39,0,0,0-3.12-1.7c-6,.11-11.93.06-17.89.07-.57,0-1.13,0-1.7.07s-.71.23-.69.76c.21,5,.06,10.06.06,15.09q0,27.69,0,55.38,0,3.2-.06,6.4a1.56,1.56,0,0,0,.76,1.5,21.27,21.27,0,0,1,7.46,8.54,34.66,34.66,0,0,1,3.39,19.77,41.18,41.18,0,0,1-1.79,7.85,28.05,28.05,0,0,1-2.3,5.27,21.88,21.88,0,0,1-6.36,7.06,2.33,2.33,0,0,0-1.09,2.06c0,7.2,0,14.39-.06,21.59a8.64,8.64,0,0,0,.1,1.29,2,2,0,0,0,1.55,1.87,2,2,0,0,1,1,.55c.27.3.51.67.3,1.08a1,1,0,0,1-1.08.54c-2.67-.53-5.38-.27-8.07-.35a24.49,24.49,0,0,0-2.78.27c-.45,0-1,.12-1.16-.48a1,1,0,0,1,.79-1.22l.09,0c2.17-.28,2.26-1.87,2.25-3.54q0-6.4-.08-12.8c0-2.1,0-4.2,0-6.3,0-.71-.27-1-1-.74-3.07,1.28-6.29.91-9.47.92-7.36,0-14.73,0-22.09,0a17.05,17.05,0,0,0-3.38.27c-.67.13-1.61.28-1.83-.52s.66-1,1.26-1.32c.15-.07.31-.12.46-.18,1.58-.64,1.91-1.29,1.33-2.94-1.54-4.36-3.12-8.7-4.69-13.06-.9-2.51-1.84-5-2.66-7.53a1.86,1.86,0,0,0-2.06-1.45c-2.63,0-5.26.06-7.9.06a18.8,18.8,0,0,1-2.59-.09,1.55,1.55,0,0,0-1.92,1.14c-1,2.72-1.92,5.45-3,8.15-1.41,3.66-2.56,7.42-4.09,11a4.61,4.61,0,0,0-.45,1.73,3,3,0,0,0,2.83,3.24l.6,0c.68,0,1.23.33,1.19,1.06s-.75.8-1.3.71a52.6,52.6,0,0,0-8.17-.38,5.63,5.63,0,0,0-2.76.71,11.37,11.37,0,0,1-8.76.56c-7.38-2.14-12.45-6.95-15.75-13.84a36,36,0,0,1-2.9-20.95,31.14,31.14,0,0,1,5.79-14.28,24.31,24.31,0,0,1,10.52-8.13,16.67,16.67,0,0,1,13.32.17c1,.4,1.91.79,2.87,1.15a2,2,0,0,0,2.52-.57.76.76,0,0,1,.14-.15c.53-.38,1-1,1.73-.73s.49,1.1.44,1.7A81.84,81.84,0,0,0,177.4,131c0,.47.31,1.19-.45,1.34s-1.08-.46-1.31-1a35.49,35.49,0,0,0-1.86-4.08,23.24,23.24,0,0,0-2.81-3.87,11.17,11.17,0,0,0-14-2.12,19.44,19.44,0,0,0-7.36,8.32,38.16,38.16,0,0,0-3.83,19.76,34.94,34.94,0,0,0,4,15.14c1.74,3.21,3.85,6.15,7.05,8,3,1.73,6.24,2.37,9.73.88,3.85-1.65,5.73-4.73,7-8.43,1.41-4,3-8,4.32-12,1.17-3.46,2.58-6.84,3.73-10.31,1.37-4.1,3-8.12,4.43-12.18,1.26-3.5,2.47-7,3.72-10.53.38-1.07.8-2.11,1.2-3.18a.68.68,0,0,1,.69-.47c.38,0,.47.29.55.6,2,7.83,5.24,15.22,7.85,22.83,3.31,9.66,7.13,19.15,10.24,28.89a15.71,15.71,0,0,1,.43,1.64,1,1,0,0,0,1.16.89c.47,0,.41-.61.46-1a26.4,26.4,0,0,0,0-4.58c-.25-6.26-.11-12.53-.11-18.79,0-7.3,0-14.6,0-21.89,0-.6,0-1.2-.06-1.8a1.37,1.37,0,0,0-.63-1.19,8.7,8.7,0,0,1-3.2-3.32c1.34,0,2.6.46,3.94.53,5.23.26,10.36-.58,15.52-1.11a27.35,27.35,0,0,1,9.91.31c1,.25,1.14-.09,1.21-.93.12-1.5,0-3,0-4.49,0-2.15,0-2.17-2.2-2-2.65.23-5.33-.12-8,.39a.92.92,0,0,1-1.15-.56,1,1,0,0,1,.61-1.22,8.66,8.66,0,0,1,1.68-.61,1.34,1.34,0,0,0,1-1.3,3.08,3.08,0,0,0-.32-1.75,56.64,56.64,0,0,1-2.58-6.7c-1.75-4.64-3.38-9.32-5.06-14-.19-.52-.35-.92-1.08-.92-4,0-8,.15-12,0a.89.89,0,0,0-1,.7c-.27.89-.57,1.78-.89,2.65q-3.24,8.9-6.5,17.8a2.6,2.6,0,0,0,1.91,3.74c.6.18,1.22.31,1.82.5.42.13.89.38.78.87a1.1,1.1,0,0,1-1,.81,8.25,8.25,0,0,1-2.77-.24,10.72,10.72,0,0,0-2-.43c-.48,0-1,0-1.22.48a1.32,1.32,0,0,0,.14,1.42,2.88,2.88,0,0,0,.51.61c2.33,1.85,4.78,3.46,7.83,3.84a1.64,1.64,0,0,0,1.82-.7,2.3,2.3,0,0,1,1-.92c.71-.28,1.24-.7,1.19-1.53a1.82,1.82,0,0,0-1.42-1.72,1.06,1.06,0,0,1-.75-1.56,1.19,1.19,0,0,1,1.64-.7c1.33.45,2.53,3,2.16,4.32C212.49,116.56,210.48,117.54,208.42,118.51Zm10.52,28.39h0c0,6.33,0,12.66,0,19a8.64,8.64,0,0,0,.85,3.86,3.35,3.35,0,0,0,3.55,2.17c2.43-.17,4.86-.08,7.29-.06a19.69,19.69,0,0,0,6.5-.88c4.75-1.61,7.83-5.07,9.86-9.47A36.89,36.89,0,0,0,250.47,143c-.44-5.81-1.91-11.28-5.64-15.93a16.76,16.76,0,0,0-9.82-5.89,31.62,31.62,0,0,0-10.25,0,7.13,7.13,0,0,0-5.81,6.62Q218.94,137.35,218.94,146.9ZM135.6,65.76h0c0,1.37,0,2.73,0,4.1a11,11,0,0,0,1.11,4,10.72,10.72,0,0,0,5.14,5.86c.64.32,1.32.84,2,.67a22.77,22.77,0,0,0,4.17-.92c2.56-1.11,3.72-3.47,4.59-5.78,2.09-5.58.43-10.5-3.34-14.85a5.41,5.41,0,0,0-1.62-1.3c-3-1.57-6.12-1.21-9.22-.25a2.64,2.64,0,0,0-1.46,1,6.4,6.4,0,0,0-1.44,4.35A30,30,0,0,1,135.6,65.76Zm76.31,15.58a51.74,51.74,0,0,1,7.77,0c1.92.17,2.36-.5,1.49-2.25-.51-1-1-2-1.36-3.1-1.16-3-2.06-6.09-3.06-9.15-.13-.38-.25-.85-.68-.9s-.59.47-.8.78a2.52,2.52,0,0,0-.28.74c-.28,1-.5,2-.84,3-1.08,3.1-2.1,6.22-3.45,9.22C210,81.09,210.33,81.42,211.91,81.34Zm-22.33,63.85v0c1.6,0,3.19,0,4.79,0,.79,0,1.12-.27.74-1.18-1-2.33-1.85-4.7-2.68-7.08a38.43,38.43,0,0,1-1.89-6c-.06-.32-.12-.69-.54-.75s-.67.25-.85.57a10.17,10.17,0,0,0-.6,1.25c-.51,1.3-.83,2.65-1.32,4-1,2.71-1.93,5.44-3.06,8.1-.36.84,0,1.16.81,1.15C186.52,145.18,188,145.19,189.58,145.19ZM109.63,81.33c2.19,0,2.35-.12,1.7-1.93-1.36-3.77-2.85-7.49-4-11.33a6.7,6.7,0,0,0-.44-1.11c-.18-.34-.35-.79-.84-.71s-.56.43-.66.8c-.21.77-.38,1.55-.62,2.31-1.13,3.5-2.38,7-3.77,10.37-.61,1.5-.6,1.54,1,1.52A68.88,68.88,0,0,1,109.63,81.33Z"/><path class="cls-1" d="M318.38,160.52a23.68,23.68,0,0,0,.82-2.78,45,45,0,0,1,2.12-6.64c1.36-4,2.83-8,4.24-12,2.09-5.93,4.19-11.85,6.25-17.78.86-2.47.83-2.45,3.43-2.33a30.47,30.47,0,0,0,4.29-.07,28.52,28.52,0,0,1,5,0,15.68,15.68,0,0,0,5.17-.15,3.8,3.8,0,0,1,1.09-.06.79.79,0,0,1,.77.55c.12.38-.14.63-.41.84s-.51.32-.74.5a2.29,2.29,0,0,0-.66,3.25c2.38,4.43,4.46,9,6.65,13.52a16.38,16.38,0,0,0,1.14,2.54c.6.85,1,.82,1.46-.14.34-.72.58-1.49.91-2.21,2.2-4.8,4.55-9.54,7-14.22.79-1.52.61-2.15-.86-2.93l-.26-.15c-.42-.27-.73-.63-.57-1.16s.69-.5,1.1-.41c2.44.51,4.92.26,7.37.35a17,17,0,0,0,4.07-.34,2.13,2.13,0,0,1,2,.28.71.71,0,0,1-.18,1.31c-.33.15-.67.31-1,.43-2.69,1-4.14,3.17-5.33,5.53-2.83,5.62-5.44,11.35-8.34,16.93a13.15,13.15,0,0,0-1.37,6.52c.07,6.2,0,12.39,0,18.59,0,1,.09,2.06.12,3.09a1.48,1.48,0,0,0,1.32,1.51,16.2,16.2,0,0,1,1.72.49.86.86,0,0,1,.56,1c-.07.43-.45.54-.84.56a3.12,3.12,0,0,1-.8,0c-2.91-.64-5.85-.21-8.77-.29a11.55,11.55,0,0,0-2.08.24,4.5,4.5,0,0,1-1.59,0c-.38-.07-.71-.24-.76-.68a.77.77,0,0,1,.6-.82c.62-.23,1.25-.46,1.89-.63a1.71,1.71,0,0,0,1.35-1.44,10.13,10.13,0,0,0,.19-1.78q0-11.1-.05-22.19a4.5,4.5,0,0,0-.47-2Q350.48,134.21,345,123a8.23,8.23,0,0,0-.81-1.26c-1.54-2.07-3.24-2.2-5-.33a2.89,2.89,0,0,0-.44,2.1c0,4,0,8,0,12q0,17,0,34.09a7.57,7.57,0,0,0,.19,1.58,2.06,2.06,0,0,0,1.8,1.76l.39.07c.8.14,1.84.26,1.61,1.31s-1.24.68-2,.56a45.58,45.58,0,0,0-10.56,0c-.43,0-.86.09-1.29.08s-.89,0-.88-.58.1-.95.68-1.09.9-.26,1.36-.32c1.13-.16,1.52-.89,1.64-1.92a31.74,31.74,0,0,0,.1-3.79q0-13.19,0-26.39c0-2.06.39-4.12,0-6.18,0-.2-.05-.4-.09-.59s-.07-.64-.46-.68-.49.31-.54.6c-.26,1.38-.87,2.65-1.26,4-1,3.36-2.22,6.62-3.34,9.92-.79,2.33-1.7,4.61-2.44,7-1.17,3.67-2.63,7.26-3.83,10.92-.93,2.84-2.26,5.56-2.7,8.55-.06.42-.09,1-.77,1s-1-.35-1.14-.9c-.91-2.71-1.79-5.43-2.73-8.13-1.35-3.9-2.78-7.77-4.08-11.68-1.5-4.51-3.36-8.89-4.62-13.48a26.26,26.26,0,0,0-1.72-4.78,1.69,1.69,0,0,0-.49-.74.7.7,0,0,0-.45-.15c-.24.05-.22.29-.21.49.16,11,.16,21.9.14,32.86a18.37,18.37,0,0,0,.06,2c.16,1.52.41,1.76,1.91,2.12.39.09.76.23,1.14.35a.85.85,0,0,1,.66,1c-.08.54-.53.63-1,.65a3.73,3.73,0,0,1-.89,0,20.54,20.54,0,0,0-7.55,0c-.58.1-1.47.42-1.66-.37s.56-1.26,1.29-1.54c2.09-.79,2.36-1.22,2.35-3.47q-.05-23-.07-46.08a2.54,2.54,0,0,0-1.71-2.8,7.86,7.86,0,0,1-1.55-.89.62.62,0,0,1-.3-.77c.14-.34.44-.37.75-.34.9.08,1.79.15,2.69.24a15.14,15.14,0,0,0,4,0c1.62-.26,2,0,2.58,1.57,1,3,2,5.93,3,8.88,1.84,5.24,3.8,10.45,5.53,15.72,1.42,4.33,3.3,8.51,4.4,12.94C317.07,159,317.93,159.53,318.38,160.52Z"/><path class="cls-1" d="M295.11,54.79a43.45,43.45,0,0,0,7.26.34,13.23,13.23,0,0,0,3.37-.3,4.09,4.09,0,0,1,1.18-.13.91.91,0,0,1,.86.84c.08.47-.2.74-.63.88-.19.06-.38.12-.57.2a2.23,2.23,0,0,0-1.43,3.06c1.53,4.06,2.5,8.28,3.77,12.42,1.46,4.77,2.78,9.59,4.22,14.37a46.42,46.42,0,0,1,1.58,6.69c0,.27.06.56.4.6s.43-.18.53-.39a16.22,16.22,0,0,0,1-2.37c1.12-4,2.31-8,3.52-12,1.42-4.71,2.75-9.46,4.3-14.13a2.92,2.92,0,0,0-.24-2.13,9.34,9.34,0,0,1-.59-1.9,5.06,5.06,0,0,0-4.41-4.28,4.41,4.41,0,0,1-.49-.12c-.42-.14-1-.11-1-.76a1,1,0,0,1,1.15-.9c1.36.05,2.72.22,4.09.26a39.17,39.17,0,0,0,7.87-.19,6.41,6.41,0,0,1,1.39-.1c.48,0,.66.39.71.83s-.19.58-.53.72c-2.68,1.11-2.76,1.14-2,3.95.9,3.27,2,6.49,2.92,9.75,2.08,7.33,4.44,14.58,6.3,22a6.57,6.57,0,0,0,.53,1.29c.11.22.24.53.57.47s.37-.35.44-.61c.46-1.7.92-3.4,1.36-5.11.88-3.35,1.92-6.65,2.93-10,1.38-4.48,2.65-9,4-13.5.21-.7.44-1.39.7-2.08a9,9,0,0,0,.64-2.3c.17-1.81-.27-2.57-2-3.22-.62-.24-1.26-.41-1.9-.59-.29-.08-.63-.1-.69-.46a.9.9,0,0,1,.4-.86,2,2,0,0,1,1.63-.29,28.08,28.08,0,0,0,9.15-.09,1.52,1.52,0,0,1,1.16.16,1.11,1.11,0,0,1,.63,1.06c-.06.5-.53.42-.87.49a4.44,4.44,0,0,0-3.76,3.37c-1.72,6.42-4,12.67-5.68,19.11-1.26,4.82-2.84,9.56-4.28,14.33-1.32,4.36-2.67,8.71-4,13.09-.38,1.27-.58,2.6-.88,3.89-.12.52-.27,1.17-.9,1.15s-.79-.58-.92-1.07c-.28-1-.48-2-.76-3q-3.08-10.59-6.18-21.17c-1.12-3.83-2.41-7.61-3.23-11.53a24,24,0,0,0-1.12-3.19c-.08-.21-.15-.5-.42-.49s-.31.32-.38.52c-.72,1.94-1.06,4-1.65,6-1.49,5-3,10.06-4.46,15.11-1.59,5.6-3.59,11.08-4.84,16.78a2.58,2.58,0,0,1-.89,1.83c-.51.34-.93.37-1.12-.35,0-.13-.08-.25-.11-.38-1.58-7.67-4.27-15-6.43-22.54-2.31-8.06-4.68-16.11-7-24.16-.38-1.31-.86-2.59-1.21-3.91-.54-2-2.13-2.66-3.87-3.16a4,4,0,0,0-.4,0c-.51-.09-1.16,0-1.15-.8s.54-.91,1.18-.9C294.29,54.84,294.59,54.81,295.11,54.79Z"/><path class="cls-1" d="M395.79,82.58a35.9,35.9,0,0,1-3.17,15.52c-2.38,5-5.79,9.15-10.84,11.72a16.25,16.25,0,0,1-15,.32,22.92,22.92,0,0,1-9.16-8.08,31.24,31.24,0,0,1-5.13-14.2,39.14,39.14,0,0,1,0-9.86,35.23,35.23,0,0,1,4.61-13.69,21.94,21.94,0,0,1,9.86-9,16.16,16.16,0,0,1,15.06.54c5.43,2.92,8.83,7.54,11.12,13.11A35.44,35.44,0,0,1,395.79,82.58Zm-37,.19a33.16,33.16,0,0,0,3,15.54c1.45,3.11,3.18,6.07,6,8.19a9.62,9.62,0,0,0,9.32,1.67c3.46-1.19,5.65-3.9,7.54-6.84,2.71-4.21,3.89-9,4.49-13.84a38,38,0,0,0-.58-12.91c-1.14-5.17-3-10-6.63-14-3.36-3.7-7.88-4.92-12-2.91a16.3,16.3,0,0,0-6.8,6.85C360,70,358.72,75.91,358.77,82.76Z"/><path class="cls-1" d="M269.85,110.93H256.05a23.3,23.3,0,0,0-3.08.28c-.66.09-1.36.09-1.49-.76s.48-1,1.11-1.13c2.69-.69,2.78-.88,2.78-3.59q0-23,.07-46.08c0-1.61-.48-2.33-2.51-3.06-.25-.09-.53-.08-.78-.16a.8.8,0,0,1-.55-.95.72.72,0,0,1,.71-.71,4,4,0,0,1,.6,0c8.31.68,16.64.1,25,.27,2.36,0,4.73,0,7.1,0,1.33,0,1.55.22,1.38,1.56-.28,2.21.17,4.38.27,6.57,0,.59.31,1.5-.49,1.62s-.72-.86-.86-1.42c-1.12-4.17-3.55-5.46-6.79-5.4-4.59.08-9.19.19-13.79-.07h-.2c-2.06,0-2.1.06-2.09,2.08,0,5.66,0,11.33.06,17,0,2.75-.12,2.25,2.33,2.28,2,0,4,0,6,0,2.61,0,3.83-1.33,3.64-4a2.06,2.06,0,0,1,0-.4.86.86,0,0,1,.93-.84c.59,0,.8.38.76.94-.12,1.69-.26,3.38-.32,5.08a61.48,61.48,0,0,0,.32,6.69,8.23,8.23,0,0,1,0,1.29c0,.42-.21.8-.7.83a.89.89,0,0,1-1-.71,2.69,2.69,0,0,1-.08-.89A4.07,4.07,0,0,0,270,82.7a58.05,58.05,0,0,1-6.59,0c-.81,0-1.05.33-1.05,1.07q.05,11.59.08,23.19c0,.82.47.91,1.1.9,2.53,0,5.06-.05,7.6,0s5.22-.14,7.79.11c3.27.32,6.17-3.12,6.4-5.65a3.4,3.4,0,0,1,.16-.68c.08-.26.22-.53.53-.52a.7.7,0,0,1,.64.56,2.27,2.27,0,0,1,.05.79c-.16,1.62-.29,3.25-.51,4.86a15.15,15.15,0,0,0,.14,2.18c0,1.24-.14,1.44-1.41,1.47s-2.53,0-3.8,0H269.85Z"/><path class="cls-1" d="M275.54,174.65h-14a12.15,12.15,0,0,0-2.28.23,7.52,7.52,0,0,1-1.49.08c-.41,0-.85-.11-1-.56s.27-.78.66-1a3.88,3.88,0,0,1,1.52-.47,1.76,1.76,0,0,0,1.67-1.68,17.34,17.34,0,0,0,.11-3c-.1-9.63.3-19.26.09-28.89-.11-5.13-.15-10.26-.06-15.39,0-2.53-.19-2.85-2.6-3.67l-.67-.21c-.3-.1-.55-.26-.53-.63a.76.76,0,0,1,.51-.68,2.19,2.19,0,0,1,1.18-.15c4.28.67,8.58.21,12.88.29,5,.09,9.93,0,14.89.05a24.22,24.22,0,0,0,3.79-.2,1.13,1.13,0,0,1,1.45,1.12c.16,2.56.27,5.12.35,7.68,0,.45-.11,1-.7,1.05s-.79-.6-.79-1.07a6.34,6.34,0,0,0-1-3.19,4.28,4.28,0,0,0-3.76-2.41q-6.15-.1-12.29-.06c-1.44,0-2.86-.08-4.29-.19-1.16-.09-1.46.2-1.46,1.33,0,6.33,0,12.66,0,19,0,.75.27,1,1,1,2.77,0,5.53,0,8.3,0,1.49,0,2.82-1.44,3.09-3.26a11.46,11.46,0,0,1,.19-1.18.71.71,0,0,1,.79-.61.68.68,0,0,1,.59.8c0,.66-.07,1.33-.16,2a36.91,36.91,0,0,0,0,9.07,12.85,12.85,0,0,1,0,1.89c0,.36-.16.66-.58.68a.69.69,0,0,1-.75-.54c-.12-.41-.21-.84-.29-1.26-.58-3-1.85-4.17-4.67-4-2,.1-4,0-6,0-1.49,0-1.54,0-1.55,1.44,0,5.3,0,10.6,0,15.89q0,3.45,0,6.9c0,.52,0,.91.72.91,5.66,0,11.33-.09,17-.07a4.57,4.57,0,0,0,4.09-2.54,5.14,5.14,0,0,0,1-3.09.84.84,0,0,1,.88-1c.55,0,.64.53.63,1-.08,2.46-.14,4.92-.3,7.37-.09,1.26-.34,1.38-1.59,1.38H275.54Z"/><path class="cls-1" d="M120.76,147.95a52.86,52.86,0,0,1-5.39-.08,1.61,1.61,0,0,0-1.83,1.2c-1.94,5.38-3.85,10.76-5.78,16.14-.37,1-.82,2-1.23,3.05a4.08,4.08,0,0,0-.29,2.63,2.81,2.81,0,0,0,3,2.31,4.47,4.47,0,0,1,.79.09,1,1,0,0,1,.74,1c0,.56-.49.66-.95.65-1.4,0-2.76-.38-4.17-.38a33,33,0,0,0-5.87.33,3.45,3.45,0,0,1-.8,0,.84.84,0,0,1-.86-.56.78.78,0,0,1,.44-.91,4.08,4.08,0,0,1,1-.46,5.37,5.37,0,0,0,3.49-3.57c2.36-6.53,4.63-13.09,7.06-19.6,2.26-6.07,4.3-12.23,6.62-18.27,1.37-3.57,2.42-7.25,4-10.74.55-1.2.56-2.6,1.15-3.81.18-.36.29-.81.78-.79s.56.49.65.87a57.87,57.87,0,0,0,3,8.87c.53,1.34.72,2.79,1.33,4.07a101.54,101.54,0,0,1,3.57,9.62q2.2,6.09,4.37,12.2c1.84,5.16,3.58,10.36,5.64,15.45a21.42,21.42,0,0,0,1.41,3.62,4.57,4.57,0,0,0,2.35,2c.71.26,1.68.64,1.38,1.53-.22.66-1.18.42-1.88.34a46.48,46.48,0,0,0-10.06,0c-.76.08-1.8.39-2-.45s.77-1.24,1.49-1.44c2.17-.61,2-1.93,1.48-3.46-1.35-3.72-2.66-7.45-4-11.18-1.14-3.18-2.12-6.44-3.48-9.54a1.27,1.27,0,0,0-1.29-.87Zm-.09-2.77v0c1.7,0,3.39,0,5.09,0,.56,0,1.11-.05.7-.92a94.18,94.18,0,0,1-4.79-13c-.13-.43-.21-1-.8-1s-.84.49-1,1c-.31.91-.55,1.85-.86,2.76-1.16,3.39-2.35,6.77-3.72,10.08-.45,1.07-.41,1.11.71,1.12C117.54,145.19,119.11,145.17,120.67,145.17Z"/><path class="cls-1" d="M81.29,82.4a9.18,9.18,0,0,1-2.75,2.85.38.38,0,0,1-.46-.27,4.89,4.89,0,0,0-1.57-1.89c-.6-.49-.59-1,0-1.45A3.27,3.27,0,0,0,78,79.83c.06-.26.22-.47.58-.32,1.26.54,1.7,1.88,2.67,2.7C81.3,82.25,81.28,82.34,81.29,82.4Z"/><path class="cls-1" d="M165,146.42a1.65,1.65,0,0,1-.3.35,6.93,6.93,0,0,0-1.75,1.87c-.35.49-.84.65-1.31.07A8.47,8.47,0,0,0,160,147c-.58-.41-.46-.94,0-1.35a9.57,9.57,0,0,0,1.52-1.69.82.82,0,0,1,1.37-.08c.7.69,1.21,1.57,2,2.21C164.91,146.17,164.93,146.28,165,146.42Z"/><path class="cls-1" d="M289.55,85.36a1.06,1.06,0,0,1-.69-.67,3.69,3.69,0,0,0-1.32-1.58c-.73-.46-.6-1,0-1.41A3.72,3.72,0,0,0,288.91,80c.3-.75.79-.77,1.28-.23.68.74,1,1.77,2,2.29a.44.44,0,0,1-.09.75c-.84.37-1.15,1.14-1.6,1.82A1.38,1.38,0,0,1,289.55,85.36Z"/><path class="cls-1" d="M237,146.32a.81.81,0,0,1-.43.7,4.34,4.34,0,0,0-1.58,1.62c-.37.58-.84.75-1.33.07a9.17,9.17,0,0,0-1.64-1.73c-.49-.4-.46-.83,0-1.27s1.11-1.14,1.65-1.73.89-.59,1.27-.08a11,11,0,0,0,1.88,2C237,146,237,146.22,237,146.32Z"/><path class="cls-1" d="M374.15,85.22a2.79,2.79,0,0,1-.88-.49,10.7,10.7,0,0,0-1.65-1.92.59.59,0,0,1,.1-1A8.37,8.37,0,0,0,373.35,80c.66-.77,1.05-.71,1.49.21a4.67,4.67,0,0,0,1.32,1.46c.56.48.66.95,0,1.46a4.11,4.11,0,0,0-1.52,1.79A.43.43,0,0,1,374.15,85.22Z"/><path class="cls-1" d="M476.39,66.25A21.3,21.3,0,0,0,469,57.77l0,0,0,0h0A20.92,20.92,0,0,0,463.41,55a33,33,0,0,0-14.35-.89c-5.62.73-11.23,1.43-16.9.52a1.57,1.57,0,0,0-.5,0c-.79.13-1,.65-.69,1.36a2.41,2.41,0,0,0,1.53,1.19,2.25,2.25,0,0,1,1.74,2.55c0,.4,0,.8,0,1.2q0,10.89,0,21.79h0c0,6.36,0,12.73,0,19.09a41.49,41.49,0,0,1-.1,5.29,2,2,0,0,1-1.49,2,2.19,2.19,0,0,1-2.33-1c-3.55-4-5.78-8.91-8.48-13.48-2.1-3.55-3.89-7.28-6.19-10.71-.19-.28-.59-.55-.32-1a1.06,1.06,0,0,1,1.08-.37,10.47,10.47,0,0,0,3.18-.08c4.8-.93,8.3-3.48,10-8.16a17.55,17.55,0,0,0,.6-9.89,13.12,13.12,0,0,0-10-9.75,35.28,35.28,0,0,0-12,.09,18.27,18.27,0,0,1-3,.21,60.26,60.26,0,0,1-7.77-.31c-1-.14-1.21.33-.75,1.19a3.54,3.54,0,0,0,1.84,1.47,2.56,2.56,0,0,1,1.59,2.34,18.83,18.83,0,0,1,.08,1.9c-.21,9,.07,18,0,27-.06,5.76,0,11.53,0,17.29a2.83,2.83,0,0,1-2.38,3.18c-.71.16-1.62.58-1.48,1.36.17.94,1.18.76,1.94.69a41.77,41.77,0,0,1,10.05,0,4.57,4.57,0,0,0,1,0,.93.93,0,0,0,.94-.61c.15-.51-.19-.82-.54-1.08a4.26,4.26,0,0,0-1.57-.62,1.55,1.55,0,0,1-1.33-1.52c0-.63-.12-1.26-.12-1.89,0-3,0-5.93,0-8.9,0-3.83,0-7.66-.08-11.49a22.29,22.29,0,0,1-.06-3.39c0-.35,0-.82.5-.84a1,1,0,0,1,1.08.55c.45,1.07,1.12,2,1.63,3.08,1.93,4.05,4.26,7.9,6.44,11.82a50.92,50.92,0,0,0,5.79,8.83,19.13,19.13,0,0,0,7.59,5.5c1.63.64,3.28.34,4.93.33,6.6,0,13.19,0,19.79-.1a25.82,25.82,0,0,0,12.25-3.17,26.7,26.7,0,0,0,2.75-1.75v0a21.11,21.11,0,0,0,6.36-6.82,28.06,28.06,0,0,0,2.3-5.27A41.2,41.2,0,0,0,479.78,86,34.66,34.66,0,0,0,476.39,66.25ZM413.56,80.17a12,12,0,0,1-6.84-10.61c-.08-1.26,0-2.53,0-4s-.09-3,.09-4.52a4.15,4.15,0,0,1,3.3-4c2.79-.7,5.57-1.06,8.28.33a9.52,9.52,0,0,1,3.79,3.87c1.92,3.3,3.12,6.83,2.1,10.68a12.92,12.92,0,0,1-4.25,7,3.77,3.77,0,0,1-1.58.81c-1.23.26-2.48.45-3.72.66A1.82,1.82,0,0,1,413.56,80.17ZM472,87.87a34,34,0,0,1-2.66,9.28l-.06.11h0c-2.52,5.28-6.29,9.16-12.23,10.49a11.86,11.86,0,0,1-2.58.22c-3,0-6,0-9,0a4,4,0,0,1-4.37-4.29c0-5,0-9.93,0-14.89q0-2.7,0-5.4h0c0-6.7,0-13.39,0-20.09a4.5,4.5,0,0,1,1-2.76,7.52,7.52,0,0,1,6.08-3.45,35.64,35.64,0,0,1,8.56.22,17.44,17.44,0,0,1,12.8,10.13,30.84,30.84,0,0,1,1.85,4.94A36,36,0,0,1,472,87.87Z"/><path class="cls-1" d="M459.25,82.41c0,.08,0,.21-.11.25a14.7,14.7,0,0,0-2,2.16.85.85,0,0,1-1.43-.19,5.39,5.39,0,0,0-1.33-1.46c-.66-.49-.61-1.06,0-1.57A6.47,6.47,0,0,0,455.83,80c.38-.62,1-.43,1.33,0a15.1,15.1,0,0,0,1.92,2.14A1,1,0,0,1,459.25,82.41Z"/></svg>